<?xml version="1.0" encoding="UTF-8" standalone="no"?>
<!-- Created with Inkscape (http://www.inkscape.org/) -->

<svg
   version="1.1"
   id="svg1"
   width="64"
   height="64"
   viewBox="0 0 64 64"
   sodipodi:docname="blog"
   inkscape:version="1.4 (e7c3feb100, 2024-10-09)"
   xmlns:inkscape="http://www.inkscape.org/namespaces/inkscape"
   xmlns:sodipodi="http://sodipodi.sourceforge.net/DTD/sodipodi-0.dtd"
   xmlns="http://www.w3.org/2000/svg"
   xmlns:svg="http://www.w3.org/2000/svg">
  <defs
     id="defs1" />
  <sodipodi:namedview
     id="namedview1"
     pagecolor="#ffffff"
     bordercolor="#000000"
     borderopacity="0.25"
     inkscape:showpageshadow="2"
     inkscape:pageopacity="0.0"
     inkscape:pagecheckerboard="0"
     inkscape:deskcolor="#d1d1d1"
     showgrid="false"
     inkscape:zoom="11.421875"
     inkscape:cx="53.450068"
     inkscape:cy="38.960328"
     inkscape:window-width="1920"
     inkscape:window-height="1011"
     inkscape:window-x="0"
     inkscape:window-y="32"
     inkscape:window-maximized="1"
     inkscape:current-layer="g1" />
  <g
     inkscape:groupmode="layer"
     inkscape:label="Image"
     id="g1">
    <path
       style="fill:#1a1a1a"
       d="m 8.5501023,64.173954 c -3.12987,-0.366296 -5.876914,-2.310606 -7.323738,-5.183615 -0.674812,-1.339998 -0.931037,-2.447342 -1.014387,-4.383935 l -0.07397,-1.71875 h 1.89355 1.893549 v -18.8125 -18.8125 H 22.580969 41.236828 l 7.46921,-7.4684322 7.46921,-7.46843123 3.96814,3.96813613 3.96814,3.9681361 -3.49863,3.5002952 -3.49862,3.500296 h 1.65542 1.65541 v 18.8125 18.8125 h 1.89355 1.89355 l -0.074,1.71875 c -0.0833,1.936593 -0.33958,3.043937 -1.01439,4.383935 -0.95538,1.897126 -2.41031,3.356978 -4.25091,4.265288 -2.06583,1.019457 0.25307,0.935269 -26.260328,0.953386 -12.99375,0.0089 -23.8218747,-0.0069 -24.0624997,-0.03506 z M 57.085178,59.975902 c 0.52932,-0.26161 1.23376,-0.741329 1.5711,-1.069909 0.58899,-0.5737 1.39022,-1.788842 1.39265,-2.112089 9.4e-4,-0.124536 -5.65653,-0.15625 -27.873826,-0.15625 -22.2172917,0 -27.8747617,0.03171 -27.8738267,0.15625 0.0024,0.318016 0.799351,1.534193 1.368884,2.088936 0.647776,0.630953 1.829681,1.313679 2.58216,1.491582 0.287184,0.0679 10.1574937,0.106772 24.1792947,0.09523 l 23.694014,-0.0195 z m -0.41008,-24.025748 v -16.9375 h -1.65594 -1.65595 l -9.59405,9.593446 -9.594056,9.593445 v 5.406555 5.406554 h -11.375 -11.375 v -13.125 -13.125 h 11.157813 11.157813 l 1.87187,-1.875 1.87188,-1.875 H 22.579789 7.6751023 v 16.9375 16.9375 H 32.175102 56.675098 Z m -18.75,11.1875 v -1.875 h 7.5 7.5 v 1.875 1.875 h -7.5 -7.5 z m 0,-7.5 v -1.875 h 7.5 7.5 v 1.875 1.875 h -7.5 -7.5 z m -7.499996,2.75 c 0,-1.58125 -0.04319,-2.875 -0.09598,-2.875 -0.05279,0 -1.863086,0.589703 -4.022881,1.310452 -2.159795,0.720749 -3.943668,1.293684 -3.964162,1.27319 -0.02049,-0.02049 0.839859,-2.677385 1.911896,-5.904202 l 1.949159,-5.86694 1.890722,-1.90625 1.890723,-1.90625 h -7.404737 -7.40474 v 9.375 9.375 h 7.625 7.625 z m -0.179918,-6.752527 c 1.680831,-0.560204 1.938856,-0.684617 2.405083,-1.159668 l 0.522256,-0.53214 -1.346111,-1.341936 -1.34611,-1.341937 -0.527624,0.53761 c -0.462348,0.471098 -0.604943,0.768408 -1.1526,2.403168 -0.654982,1.955129 -0.682627,2.06243 -0.531348,2.06243 0.0515,0 0.9409,-0.282387 1.976454,-0.627527 z m 14.492224,-13.247275 8.87414,-8.874801 -1.34353,-1.34353 -1.34353,-1.343531 -8.90477,8.904769 -8.904769,8.904768 1.309093,1.313563 c 0.720001,0.72246 1.338376,1.313564 1.374156,1.313564 0.0358,0 4.05843,-3.993661 8.93921,-8.874802 z M 58.800098,8.2046238 c 0,-0.16359 -2.395,-2.5669699 -2.55802,-2.5669699 -0.0689,0 -0.70277,0.5756009 -1.40869,1.2791119 l -1.28348,1.279113 1.34172,1.345886 1.34171,1.3458862 1.28338,-1.2790152 c 0.70586,-0.703458 1.28338,-1.335264 1.28338,-1.404012 z"
       id="path1" />
  </g>
</svg>
