<?xml version='1.0' encoding='utf-8'?>
<svg width="210mm" height="297mm" viewBox="0 0 210 297" version="1.1" id="svg1" xmlns="http://www.w3.org/2000/svg"><namedview id="namedview1" pagecolor="#ffffff" bordercolor="#000000" borderopacity="0.25" /><defs id="defs1" /><g id="layer1"><path style="fill:#ffffff;stroke:none;stroke-width:5.313" d="m 36.249634,29.828834 c -4.9683,0.799927 -9.293674,4.270278 -10.564544,9.24867 -2.831781,11.093348 -0.681342,25.017105 -0.681342,36.436619 v 112.008847 30.58874 c 0,5.04705 -0.813846,11.078 1.519574,15.74425 5.563729,11.12598 24.68482,7.19732 34.917034,7.19732 h 73.772934 c 11.34603,0 24.89856,2.02846 35.98675,-0.36872 15.04469,-3.2523 10.34619,-27.07717 10.34619,-38.31714 V 109.70158 82.261654 c 0,-3.565356 0.96313,-8.782521 -0.2715,-12.145539 -1.19415,-3.252887 -5.00272,-6.001733 -7.24736,-8.546826 -6.60503,-7.489223 -13.59647,-14.636184 -20.29463,-22.04193 -2.53016,-2.797457 -5.92693,-8.292543 -9.5232,-9.62494 -2.77568,-1.028332 -6.95867,-0.271495 -9.89606,-0.271495 H 111.82175 61.440259 c -8.135282,0 -17.158845,-1.09533 -25.190731,0.197645 M 136.56269,40.42675 v 24.740934 c 0,3.384914 -0.60191,7.593832 1.90174,10.297249 2.29367,2.476769 5.83437,1.84829 8.89429,1.84829 h 15.7442 c 1.86891,0 4.89333,-0.570616 6.60449,0.271495 1.88346,0.92674 1.04268,5.639004 1.04268,7.375732 v 22.94157 87.71777 23.39141 c 0,2.71617 0.89364,7.42473 -0.53024,9.8297 -1.31704,2.22436 -5.38936,1.41614 -7.56668,1.41614 H 141.0611 62.789865 43.447007 c -1.964804,0 -5.450828,0.67012 -6.86345,-1.04263 -1.794363,-2.17562 -0.783776,-7.53777 -0.783776,-10.20321 V 191.12142 82.711287 52.122531 c 0,-2.7117 -1.157545,-9.01723 1.094746,-10.974432 1.58471,-1.377136 5.051502,-0.721294 7.002279,-0.721294 h 18.893059 73.772915 m 11.24585,8.996722 c 5.66494,4.169441 11.70068,11.330903 15.74424,17.093707 h -16.19404 c 0,-4.907941 -1.44456,-12.579187 0.45001,-17.093707 M 98.77689,110.15123 v -5.84788 c -3.48836,0.79972 -7.74785,2.48266 -11.2462,0.75701 -6.257938,-3.08681 -6.285301,-14.205882 -1.751813,-18.701794 4.524023,-4.486573 7.640373,0.731757 11.910233,-0.816718 1.5795,-0.57285 2.10018,-3.657311 2.43728,-5.07971 -5.15463,-1.377983 -10.53755,-2.994463 -15.744242,-0.747645 -9.782636,4.221393 -11.898966,21.402017 -4.006497,28.489507 5.230666,4.69713 12.237129,3.21878 18.401239,1.94723 m 3.14881,-31.038601 7.79715,22.941571 3.31473,8.53434 7.33137,0.46223 10.79603,-31.938252 -6.5181,0.462232 -2.73753,6.735043 -5.13911,18.443257 -5.4615,-17.993402 -2.86494,-7.184898 -6.5181,-0.462232 M 53.801746,141.97343 c -3.937798,1.56442 -2.791085,6.61549 0.893063,7.52328 7.031653,1.73258 16.147402,0.23962 23.389663,0.23962 h 48.582148 16.6439 c 2.29214,0 5.14528,0.35915 7.00887,-1.28389 2.3331,-2.0571 1.29818,-5.80786 -1.61298,-6.61804 -4.87909,-1.35796 -11.57953,-0.195 -16.64177,-0.195 H 77.184817 61.440578 c -2.318709,0 -5.450043,-0.53565 -7.638832,0.33366 m -0.433551,27.1185 c -4.128577,2.23204 -1.41628,6.9102 2.224561,7.49761 7.434233,1.19931 15.859271,0.13709 23.39137,0.13709 h 47.682494 16.6439 c 2.33432,-1.5e-4 5.25058,0.29487 7.07205,-1.48588 2.16728,-2.11888 1.22475,-5.60874 -1.67616,-6.41605 -4.6239,-1.28692 -10.94622,-0.19499 -15.74212,-0.19499 H 75.835322 60.091069 c -1.999606,0 -4.906942,-0.5196 -6.722874,0.46224 z" id="path1" /></g></svg>
